<?xml version="1.0" standalone="no"?>
<!DOCTYPE svg PUBLIC "-//W3C//DTD SVG 20010904//EN"
 "http://www.w3.org/TR/2001/REC-SVG-20010904/DTD/svg10.dtd">
<svg version="1.0" xmlns="http://www.w3.org/2000/svg"
 width="300.000000pt" height="384.000000pt" viewBox="0 0 300.000000 384.000000"
 preserveAspectRatio="xMidYMid meet">
<metadata>
Created by potrace 1.10, written by Peter Selinger 2001-2011
</metadata>
<g transform="translate(0.000000,384.000000) scale(0.100000,-0.100000)"
fill="#000000" stroke="none">
<path d="M1290 3808 c-6 -18 -18 -47 -25 -64 -12 -27 -11 -34 5 -58 10 -16 21
-58 25 -99 3 -39 11 -79 16 -89 21 -40 79 -9 79 41 l0 28 43 -20 c23 -11 52
-29 64 -40 29 -25 55 -19 74 19 l15 32 25 -19 c13 -10 29 -19 35 -19 6 0 21
-11 34 -25 27 -29 42 -31 60 -10 7 8 24 15 39 15 15 0 37 7 49 16 21 15 22 14
22 -20 0 -31 20 -66 38 -66 17 1 32 19 50 60 l20 45 21 -50 c31 -74 36 -80 65
-83 14 -2 38 -15 52 -29 23 -23 27 -24 47 -10 11 7 33 43 48 79 15 37 37 80
50 97 l23 31 -24 24 c-30 28 -97 55 -255 102 -136 41 -192 51 -355 64 -114 9
-115 9 -148 45 -22 24 -41 35 -60 35 l-27 0 32 -19 c17 -11 42 -34 54 -50 18
-25 30 -31 61 -31 24 0 38 -5 38 -12 0 -9 3 -9 9 1 8 13 26 13 123 2 138 -15
168 -21 168 -30 0 -4 9 -7 21 -8 11 -1 69 -17 130 -35 76 -22 109 -37 110 -48
0 -9 3 -10 5 -3 8 18 104 -25 97 -43 -3 -8 -11 -14 -18 -14 -7 0 -27 -37 -45
-82 -39 -99 -41 -101 -68 -91 l-21 8 24 53 24 52 -24 6 c-14 3 -25 13 -25 20
0 11 -4 12 -19 5 -10 -6 -21 -7 -25 -4 -12 12 -6 -17 11 -52 15 -31 15 -37 3
-45 -30 -19 -36 -11 -67 103 -14 51 -15 60 -2 68 22 13 29 11 29 -10 0 -28 17
-35 29 -12 6 11 11 24 11 29 0 9 -80 42 -101 42 -4 0 -17 -43 -29 -95 -12 -54
-27 -95 -33 -95 -35 1 -36 15 -12 110 14 52 25 96 25 98 0 1 -6 2 -14 2 -8 0
-16 4 -18 9 -1 4 -31 11 -65 15 -58 6 -63 5 -63 -12 0 -15 5 -18 24 -15 56 11
90 -41 62 -94 -22 -44 -43 -58 -61 -43 -12 10 -12 16 6 40 33 44 12 91 -25 55
-11 -11 -16 -34 -16 -71 0 -52 -1 -54 -26 -54 -23 0 -26 3 -22 25 5 22 2 25
-23 25 -51 0 -88 65 -61 106 10 15 47 34 66 34 26 0 19 -38 -6 -42 -34 -5 -33
-53 1 -53 20 0 27 7 33 34 18 66 10 75 -62 82 -36 3 -68 3 -72 0 -3 -3 -8 -46
-10 -96 -1 -49 -7 -93 -13 -97 -22 -16 -35 -7 -35 25 0 32 -1 33 -35 29 -25
-3 -42 1 -55 13 -20 18 -26 60 -12 82 11 17 59 34 77 27 25 -10 17 -34 -10
-34 -14 0 -28 -7 -32 -16 -8 -23 20 -47 46 -39 18 5 21 14 21 62 0 53 -1 55
-22 49 -13 -3 -49 -6 -81 -6 -54 0 -57 -1 -53 -22 3 -13 8 -58 11 -100 6 -78
6 -78 -19 -78 -24 0 -25 2 -31 99 -7 90 -9 98 -26 94 -14 -4 -19 0 -19 16 0
12 6 21 15 21 10 0 15 10 15 33 0 33 18 58 50 70 8 3 1 6 -16 6 -27 1 -33 -4
-44 -31z"/>
<path d="M940 3783 c-16 -20 -20 -36 -16 -59 8 -39 4 -42 -109 -85 -49 -18
-124 -52 -165 -75 -159 -86 -210 -116 -216 -125 -3 -5 -39 -7 -84 -3 l-79 7
-37 -37 c-31 -31 -36 -41 -32 -74 3 -20 8 -44 12 -52 4 -11 -16 -39 -68 -91
-40 -42 -77 -87 -81 -99 -4 -13 -20 -34 -36 -48 -24 -19 -29 -32 -29 -67 0
-47 17 -62 51 -45 18 10 19 8 13 -29 -7 -46 10 -61 74 -61 47 0 88 29 108 77
9 20 21 33 32 33 24 0 42 19 42 46 0 17 7 23 27 26 17 2 32 12 39 26 7 13 26
32 43 43 35 21 37 29 16 68 l-14 29 37 5 c113 16 133 21 143 33 8 10 8 14 1
14 -6 0 -14 -5 -17 -10 -4 -7 -13 -6 -26 1 -16 8 -29 7 -54 -5 -46 -22 -72
-20 -100 9 -34 33 -31 52 11 92 54 51 29 60 -33 12 -49 -39 -73 -44 -73 -15 0
7 11 18 25 24 41 19 30 33 -21 30 -31 -2 -51 -9 -58 -20 -15 -24 4 -53 35 -53
16 0 24 -5 23 -16 -1 -9 27 -50 61 -90 47 -55 61 -77 53 -86 -18 -22 -31 -14
-91 58 -32 38 -63 69 -67 69 -5 0 -14 -10 -21 -21 -10 -19 -4 -29 57 -90 65
-65 68 -70 51 -86 -17 -17 -21 -14 -87 57 -55 59 -71 72 -79 61 -8 -13 -12
-13 -26 -1 -15 12 -11 18 34 62 50 48 51 48 31 68 -11 11 -20 32 -20 48 0 65
57 93 147 73 45 -10 50 -9 91 20 35 26 43 28 48 15 4 -9 1 -23 -6 -30 -9 -12
-8 -20 5 -40 16 -24 16 -25 -24 -52 -44 -29 -53 -59 -21 -69 34 -11 56 2 55
33 0 22 4 27 25 27 18 0 26 -6 28 -22 2 -13 14 -25 32 -31 l28 -10 -25 36
c-13 20 -35 46 -48 57 -13 11 -25 29 -27 40 -4 28 25 26 32 -2 3 -13 13 -32
24 -44 16 -19 25 -21 77 -16 32 3 62 1 65 -4 10 -16 43 -10 56 11 7 11 23 20
35 20 35 0 56 28 48 64 -20 87 -24 82 36 42 58 -39 89 -45 109 -21 9 11 17 12
32 4 16 -9 26 -7 50 11 22 16 33 19 42 11 8 -6 21 -8 30 -5 31 12 35 38 20
114 -9 41 -13 87 -10 102 6 32 1 38 -83 99 -67 49 -118 53 -151 12z m128 -22
c22 -16 43 -34 47 -40 3 -6 15 -11 26 -11 20 0 25 -19 10 -35 -6 -6 -2 -44 10
-95 20 -93 19 -110 -9 -110 -15 0 -21 16 -36 95 -16 86 -20 95 -40 95 -13 0
-25 -3 -28 -6 -3 -3 5 -44 18 -92 26 -94 25 -112 -5 -112 -15 0 -21 10 -27 47
-9 46 -10 47 -45 48 -25 1 -40 -4 -48 -16 -9 -16 -6 -21 29 -39 35 -18 39 -23
30 -40 -6 -11 -13 -20 -17 -20 -9 0 -131 89 -138 101 -4 5 -1 17 6 25 10 13
14 12 30 -2 11 -10 22 -15 25 -11 9 8 -12 62 -22 60 -38 -10 -89 -33 -92 -41
-2 -6 12 -48 31 -94 19 -46 33 -86 30 -90 -2 -5 -12 -8 -23 -8 -13 0 -27 22
-53 87 -26 66 -39 88 -53 88 -11 0 -19 6 -19 14 0 16 211 103 237 97 23 -5 32
23 13 44 -33 37 -7 90 44 90 15 0 46 -13 69 -29z m-372 -233 c-3 -13 12 -52
40 -104 43 -80 44 -83 25 -93 -27 -15 -28 -14 -35 14 -7 29 -18 32 -36 10 -17
-20 -69 -19 -92 2 -25 23 -23 59 7 88 27 27 40 31 51 14 4 -7 -3 -19 -16 -29
-27 -20 -21 -50 8 -50 39 0 45 25 20 74 l-23 45 -58 -37 c-47 -29 -60 -33 -67
-22 -13 20 -8 25 82 74 84 46 104 49 94 14z m-533 -395 c-2 -16 16 -36 72 -79
41 -31 75 -60 75 -64 0 -4 -7 -13 -15 -20 -12 -10 -20 -7 -46 14 -17 14 -34
26 -38 26 -18 0 -18 -13 0 -31 51 -51 0 -119 -90 -119 -42 0 -55 9 -45 33 4
11 18 15 49 14 48 -2 71 12 62 37 -8 20 -41 21 -56 2 -7 -8 -21 -12 -32 -9
-14 4 -17 9 -10 16 15 15 14 44 -3 50 -19 7 -36 -12 -36 -40 0 -16 -6 -23 -20
-23 -31 0 -26 46 9 81 36 35 45 36 77 4 13 -13 31 -22 38 -19 26 10 25 33 -1
54 -20 16 -29 18 -40 8 -10 -8 -17 -8 -25 0 -7 7 -2 22 18 51 30 43 61 50 57
14z m82 -33 c16 -16 25 -30 21 -30 -13 0 -66 41 -66 51 0 17 16 9 45 -21z"/>
<path d="M984 3746 c-8 -20 27 -67 44 -61 8 3 23 5 35 5 20 1 18 4 -15 35 -41
38 -56 43 -64 21z"/>
<path d="M948 3629 c-14 -8 -15 -14 -6 -35 10 -21 16 -24 37 -19 33 8 33 8 25
39 -6 27 -26 33 -56 15z"/>
<path d="M1355 3794 c-18 -19 -17 -60 3 -58 6 1 33 2 59 3 l46 1 -19 21 c-10
12 -31 27 -46 35 -23 12 -29 12 -43 -2z"/>
<path d="M2430 3592 c-9 -4 -37 -22 -64 -41 -41 -28 -47 -37 -43 -60 4 -18 -7
-49 -36 -103 -41 -75 -42 -76 -23 -97 24 -26 37 -26 68 -2 l24 19 27 -33 c15
-19 27 -45 27 -57 0 -51 51 -64 90 -23 26 27 40 20 40 -22 0 -12 9 -28 21 -36
17 -12 19 -21 14 -51 -7 -32 -4 -37 22 -53 17 -9 34 -25 39 -36 18 -40 40 -43
81 -14 l38 27 6 -41 c3 -23 13 -47 22 -54 22 -16 21 -20 -4 -54 -17 -23 -19
-32 -10 -50 18 -32 51 -26 121 24 35 25 74 45 87 45 13 0 23 6 23 13 0 27 -48
11 -123 -40 -74 -51 -79 -53 -92 -36 -16 21 -20 16 70 78 39 27 72 50 74 52 2
2 -1 15 -8 29 l-11 25 -52 -41 c-28 -22 -56 -39 -62 -37 -15 5 -20 77 -7 90 7
7 15 6 25 -2 12 -10 20 -9 41 5 l26 17 -22 23 c-21 23 -19 44 6 44 7 0 39 -39
72 -86 47 -70 59 -82 61 -64 2 13 0 25 -5 29 -5 3 -20 22 -33 41 -38 57 -191
230 -212 241 -11 6 -55 46 -99 89 -62 61 -79 84 -79 106 -1 52 -36 113 -74
129 -39 16 -44 17 -66 7z m67 -32 c33 -20 53 -66 53 -123 0 -24 -3 -26 -19
-18 -11 7 -20 26 -24 53 -5 37 -27 68 -48 68 -12 0 -39 -30 -39 -44 0 -7 43
-40 96 -75 88 -58 111 -86 71 -86 -13 0 -83 -86 -116 -144 -6 -11 -13 -11 -30
-1 -21 11 -22 13 -6 37 9 13 15 25 13 26 -31 16 -46 28 -58 50 -13 24 -13 28
7 54 16 21 28 28 53 26 38 -2 63 -22 51 -41 -7 -12 -12 -12 -29 -1 -19 12 -24
11 -38 -3 -15 -15 -15 -17 5 -37 26 -26 39 -21 73 28 l28 39 -48 27 c-26 15
-55 35 -65 43 -22 19 -25 16 -75 -73 -39 -69 -67 -91 -78 -62 -3 8 16 49 42
92 44 73 46 79 29 91 -15 11 -16 16 -5 29 9 11 16 12 26 4 10 -9 16 -5 25 14
10 23 40 45 64 46 6 1 24 -8 42 -19z m173 -250 c26 -26 25 -30 -6 -75 -23 -34
-24 -39 -10 -53 14 -14 17 -14 36 3 13 12 18 25 14 40 -3 13 0 26 7 31 17 10
151 -137 138 -152 -5 -7 -17 -10 -27 -8 -11 3 -39 -18 -81 -60 -62 -63 -66
-65 -84 -49 -18 17 -16 20 54 83 68 62 71 67 59 89 -12 23 -13 23 -86 -50 -71
-70 -75 -73 -91 -55 -17 17 -17 19 15 45 37 31 39 39 15 56 -14 11 -19 10 -29
-4 -16 -21 -32 -6 -34 34 -4 54 -2 58 24 51 19 -5 29 0 45 23 17 24 18 30 6
35 -8 3 -17 1 -20 -4 -10 -17 -25 -11 -25 9 0 35 50 41 80 11z"/>
<path d="M2097 3564 c-3 -20 1 -27 20 -35 29 -11 39 -6 46 21 3 13 -1 24 -13
30 -31 16 -47 11 -53 -16z"/>
<path d="M1291 3390 c-345 -44 -657 -196 -902 -440 -177 -176 -273 -333 -354
-577 -33 -100 -35 -112 -34 -232 l2 -126 7 95 c42 529 448 1012 1000 1188 173
55 255 67 475 67 218 0 283 -9 465 -67 369 -117 688 -386 859 -724 98 -195
131 -328 138 -556 6 -197 -9 -315 -63 -478 -71 -214 -187 -394 -362 -561 -207
-200 -451 -326 -752 -390 -152 -33 -438 -33 -590 0 -460 98 -833 376 -1032
766 -84 167 -125 303 -138 460 l-7 90 -1 -121 c-2 -112 0 -128 32 -226 133
-409 439 -736 849 -907 298 -124 613 -151 932 -80 381 85 725 319 934 634 224
340 288 757 175 1153 -33 118 -139 328 -218 432 -224 297 -557 507 -925 581
-112 23 -377 33 -490 19z"/>
<path d="M1325 3274 c-199 -30 -391 -109 -543 -224 -284 -214 -447 -583 -403
-913 68 -512 461 -877 998 -927 348 -32 678 89 912 335 190 201 285 433 284
695 -1 394 -228 745 -598 926 -161 78 -272 104 -465 109 -85 2 -168 1 -185 -1z
m378 -45 c171 -34 357 -121 467 -217 l52 -46 -40 -12 c-28 -8 -54 -9 -84 -2
-24 5 -56 12 -71 15 -18 3 -48 -4 -87 -21 -46 -21 -64 -25 -79 -16 -30 15 -68
12 -111 -10 -22 -11 -41 -20 -44 -20 -3 0 -20 16 -39 37 l-35 36 -58 -11 c-71
-15 -97 -31 -129 -82 -14 -22 -28 -40 -32 -40 -4 0 -20 12 -36 27 -25 25 -37
28 -110 32 -58 2 -89 8 -107 21 -14 10 -40 22 -57 27 -19 5 -41 22 -56 43 -22
33 -26 35 -72 32 -93 -6 -132 -44 -121 -116 6 -35 3 -46 -14 -61 -25 -23 -25
-30 0 -62 19 -25 18 -49 -1 -37 -6 3 -21 3 -34 0 -19 -5 -28 -18 -38 -54 l-14
-47 -46 3 c-53 4 -83 -20 -93 -75 -9 -46 39 -326 89 -523 13 -52 29 -131 35
-175 13 -94 52 -190 82 -200 11 -3 34 -18 50 -32 l30 -25 44 21 c53 25 86 73
86 128 0 28 6 46 21 59 31 28 37 53 23 93 -25 70 -32 67 157 74 150 6 174 9
196 27 14 11 31 20 38 20 13 0 37 22 103 94 24 26 47 44 52 41 18 -11 48 15
94 80 39 53 45 68 36 84 -14 28 -13 31 19 42 19 7 37 26 52 55 14 25 31 44 41
44 9 0 38 -13 65 -30 46 -29 51 -29 116 -22 76 10 73 12 80 -61 11 -117 128
-133 146 -21 6 38 18 49 62 58 23 5 49 40 49 66 0 5 -15 24 -34 42 -36 35 -47
79 -32 130 4 14 3 55 -2 90 -17 109 15 130 71 46 189 -287 218 -639 77 -936
-131 -276 -385 -490 -678 -571 -276 -76 -589 -39 -851 100 -254 136 -425 353
-504 643 -30 110 -31 345 -3 451 47 175 148 349 275 476 152 152 350 254 568
293 121 22 316 20 436 -5z m-677 -264 c-6 -25 16 -39 72 -49 19 -3 41 -15 51
-27 14 -17 31 -22 101 -26 109 -6 112 -7 108 -40 -3 -25 0 -28 25 -27 59 2 68
5 73 22 27 80 56 105 139 117 37 6 45 4 54 -13 15 -28 14 -33 -6 -30 -12 2
-17 -3 -15 -13 2 -12 -8 -18 -35 -23 -65 -10 -114 -27 -108 -36 9 -15 92 -1
131 22 23 14 53 22 76 21 38 -1 93 19 82 29 -3 3 9 10 25 16 30 11 31 10 32
-21 1 -18 3 -25 6 -16 3 13 14 15 54 11 43 -4 49 -2 43 12 -5 12 0 16 19 16
14 0 30 6 34 14 13 22 73 9 73 -16 0 -19 1 -19 24 -4 15 10 27 12 31 6 10 -16
47 -12 68 8 18 16 20 16 46 -15 14 -17 39 -35 54 -38 27 -7 27 -8 11 -26 -9
-11 -23 -19 -30 -19 -23 0 -28 -23 -8 -37 21 -15 27 -64 10 -75 -6 -5 -2 -8
10 -8 17 0 20 -5 16 -30 -2 -17 -12 -32 -23 -35 -23 -8 -25 -21 -4 -29 8 -3
15 -15 15 -27 0 -15 -4 -19 -16 -15 -14 5 -15 4 -5 -8 7 -8 8 -16 4 -18 -4 -3
-3 -4 2 -2 17 3 48 -24 40 -35 -3 -6 2 -11 13 -11 11 0 25 -7 32 -15 10 -12
10 -15 0 -15 -7 0 -10 -6 -7 -14 7 -19 -22 -30 -39 -15 -8 6 -20 9 -27 6 -19
-7 -50 -75 -43 -94 9 -21 -2 -53 -18 -53 -25 0 -66 25 -61 38 3 7 0 23 -6 34
-6 11 -7 23 -3 27 5 3 10 19 12 34 4 38 -34 70 -63 54 -28 -16 -36 -15 -69 1
-26 12 -28 12 -23 -2 9 -22 -8 -29 -35 -14 -31 18 -48 35 -48 47 0 6 -17 11
-39 11 -22 0 -44 6 -51 15 -16 20 -93 20 -110 0 -15 -19 -7 -31 26 -38 20 -3
28 0 31 14 3 11 14 19 24 19 15 0 17 -6 12 -37 -3 -21 -12 -42 -20 -46 -7 -4
-13 -17 -13 -28 0 -16 -3 -18 -19 -9 -30 15 -38 12 -45 -15 -4 -14 -11 -25
-16 -25 -19 0 -10 -17 15 -28 25 -12 34 -32 14 -32 -11 0 -39 -24 -39 -34 0
-3 -9 -15 -20 -26 -11 -11 -17 -26 -14 -35 8 -20 -20 -20 -41 1 -17 18 -22 16
-40 -18 -7 -14 -19 -22 -32 -21 -11 1 -20 -3 -20 -10 1 -35 -5 -47 -23 -47
-11 0 -17 -5 -15 -12 3 -7 1 -19 -4 -27 -8 -12 -12 -12 -24 -2 -13 10 -18 7
-32 -17 l-17 -29 -201 -2 c-111 -1 -203 -3 -205 -5 -1 -2 6 -28 18 -57 11 -30
20 -55 20 -56 0 -1 -12 2 -27 8 -14 5 -33 7 -41 4 -22 -8 15 -33 42 -28 11 2
30 -3 41 -12 19 -16 19 -16 -14 -11 -19 4 -60 9 -90 12 -45 5 -54 4 -44 -6 7
-8 36 -13 68 -13 34 0 60 -5 66 -14 9 -11 3 -13 -37 -11 -27 2 -52 8 -56 13
-5 7 -8 7 -8 0 0 -6 -19 -9 -45 -7 -28 3 -45 0 -45 -7 0 -11 26 -15 64 -11 10
1 30 -2 45 -5 l26 -8 -29 -8 c-20 -6 -35 -4 -45 4 -10 8 -13 8 -8 0 5 -8 -4
-10 -29 -8 -20 2 -42 1 -50 -2 -20 -7 -17 -25 4 -22 33 3 50 -1 55 -14 4 -10
-6 -14 -38 -15 -41 0 -45 2 -55 32 -5 17 -14 67 -19 111 -8 72 -17 120 -21
120 -1 0 -3 9 -5 20 -7 51 -17 89 -26 107 -11 20 -13 29 -30 116 -11 58 -7 71
19 67 9 -1 11 0 5 2 -20 7 -15 24 7 30 11 3 20 10 20 15 0 6 -7 7 -16 4 -12
-4 -15 -2 -10 9 3 8 1 15 -4 15 -6 0 -10 -6 -10 -14 0 -8 -8 -24 -18 -36 -17
-21 -17 -20 -17 30 0 44 3 50 18 46 9 -2 15 0 11 5 -3 5 -12 9 -20 9 -8 0 -14
8 -15 18 0 9 -3 26 -6 37 -5 22 -7 115 -1 120 2 1 15 5 31 9 20 5 27 3 27 -8
0 -7 9 -16 20 -19 11 -3 20 -2 20 2 0 4 12 13 26 20 21 9 24 14 15 25 -9 11
-9 16 -1 21 7 4 9 18 6 30 -8 30 10 42 33 21 22 -20 51 -21 51 -1 0 8 7 15 15
15 25 0 17 -31 -20 -71 -35 -39 -45 -72 -25 -84 9 -6 15 -55 6 -55 -2 0 -17 7
-32 15 -16 8 -42 15 -59 15 -16 0 -39 7 -49 15 -33 25 -39 17 -12 -16 14 -17
26 -35 26 -40 0 -19 28 -8 33 13 6 21 7 21 26 4 11 -10 25 -15 30 -11 7 4 11
-5 11 -22 0 -25 4 -29 28 -28 22 0 26 4 24 23 -2 12 1 22 6 22 5 0 9 14 8 31
-1 23 -8 34 -24 40 -23 9 -21 39 3 39 8 0 15 10 17 23 2 15 10 22 25 22 28 0
41 14 23 25 -7 5 -21 28 -31 51 -16 42 -25 52 -62 63 -23 7 -13 26 14 26 10 0
19 5 19 10 0 6 7 10 15 10 8 0 15 6 15 14 0 15 21 26 51 26 10 0 19 4 19 9 0
5 -16 5 -37 0 -21 -5 -43 -9 -49 -9 -17 0 -27 32 -12 41 9 6 9 11 0 21 -9 11
-2 16 36 27 26 7 56 16 67 21 27 10 48 -8 41 -35z m-32 -1203 c-16 -12 -16
-14 -1 -9 9 4 17 4 17 1 0 -10 -35 -69 -45 -76 -5 -4 -16 -6 -23 -3 -7 3 -15
-2 -18 -10 -8 -21 -39 -19 -41 3 -1 14 7 19 35 20 43 3 46 6 38 27 -5 14 -8
14 -30 0 -16 -11 -26 -13 -31 -6 -3 6 -14 11 -23 10 -14 0 -13 -2 3 -9 16 -7
14 -9 -15 -9 -19 0 -42 4 -50 9 -17 11 -16 11 20 15 14 2 34 6 45 8 11 3 32 6
48 6 17 1 27 6 27 16 0 18 -5 18 -30 5 -15 -8 -21 -6 -31 11 -11 21 -10 22 23
16 19 -3 41 -1 48 3 8 5 22 4 34 -2 19 -10 19 -11 0 -26z"/>
<path d="M1017 2833 c-48 -7 -92 -37 -94 -64 l-3 -24 10 23 c7 17 15 22 29 17
14 -4 21 0 26 15 6 18 8 18 21 5 20 -19 34 -19 34 0 0 12 17 15 94 15 53 0 98
4 101 10 6 10 -157 12 -218 3z"/>
<path d="M2227 2739 c-5 -18 -11 -21 -34 -16 -16 3 -34 3 -40 -1 -14 -9 -13
-130 1 -151 5 -8 4 -16 -4 -21 -8 -5 -10 -17 -6 -34 13 -53 26 -13 26 79 0 92
1 95 24 101 33 8 63 41 49 55 -7 7 -12 4 -16 -12z"/>
<path d="M1335 2522 c-10 -37 -35 -105 -54 -152 -31 -74 -35 -96 -36 -172 0
-72 3 -91 21 -114 25 -34 51 -46 39 -18 -5 11 -11 45 -13 77 -3 52 8 104 43
191 7 16 6 17 -15 6 -21 -11 -22 -11 -15 6 4 11 15 39 23 64 18 52 32 74 42
63 14 -15 40 -122 45 -185 5 -66 4 -65 -27 20 -11 29 -22 52 -23 50 -2 -2 5
-42 15 -88 23 -102 25 -140 6 -185 -18 -41 -2 -38 34 8 21 26 26 44 29 110 2
43 -2 106 -9 140 -13 66 -65 226 -77 238 -5 5 -17 -22 -28 -59z"/>
<path d="M1638 2491 c2 -17 -2 -32 -12 -40 -9 -8 -16 -10 -16 -6 0 5 -9 0 -20
-10 -11 -10 -20 -24 -20 -32 0 -7 -7 -16 -15 -19 -8 -4 -15 -12 -15 -20 0 -8
-4 -14 -10 -14 -5 0 -10 -5 -10 -11 0 -5 4 -7 10 -4 6 3 7 -1 4 -9 -4 -11 3
-19 21 -26 15 -6 29 -19 32 -30 3 -11 9 -20 14 -20 17 0 9 34 -12 56 -15 16
-20 30 -15 48 8 32 73 96 97 96 40 0 31 32 -17 58 -18 10 -20 8 -16 -17z"/>
<path d="M1322 2203 c-6 -10 -12 -38 -15 -63 -3 -25 -3 -36 0 -25 3 11 11 39
18 62 14 45 12 55 -3 26z"/>
<path d="M1253 1136 c-24 -20 -42 -25 -118 -29 -81 -5 -92 -8 -112 -32 -25
-28 -28 -42 -14 -64 6 -9 5 -25 0 -40 -14 -35 5 -66 50 -85 35 -15 35 -15 8
-15 -16 -1 -39 -12 -52 -25 -23 -23 -24 -26 -10 -53 8 -15 15 -36 15 -45 0
-32 51 -69 95 -68 190 0 315 -6 327 -17 18 -19 67 -16 105 8 24 15 41 19 61
14 23 -7 69 -8 172 -4 14 1 43 0 65 -2 54 -4 84 8 89 34 7 31 16 88 19 111 4
38 -36 46 -227 45 -153 -1 -181 1 -195 15 -23 24 -3 33 62 30 28 -1 57 2 63 7
7 6 32 2 66 -10 34 -12 59 -16 65 -10 5 5 29 10 53 10 52 2 80 22 80 57 0 14
5 42 12 64 11 38 11 39 -32 83 -52 53 -89 59 -130 20 -25 -24 -30 -25 -187
-26 -158 -1 -162 0 -200 25 -48 33 -93 33 -130 2z m119 -33 l28 -27 176 0
c170 -1 176 -2 194 -24 10 -12 25 -22 34 -22 23 0 20 17 -4 23 -29 7 -35 34
-15 57 27 30 63 25 83 -10 12 -21 22 -28 35 -24 11 3 17 0 17 -10 0 -9 -7 -16
-15 -16 -12 0 -15 -13 -15 -55 0 -39 -4 -55 -13 -55 -10 0 -13 14 -9 55 4 46
2 55 -12 55 -13 0 -16 -11 -16 -55 0 -41 -4 -55 -14 -55 -10 0 -16 13 -18 37
-3 35 -4 36 -20 20 -12 -13 -16 -27 -11 -47 4 -23 2 -30 -11 -30 -9 0 -16 8
-16 18 0 13 -8 17 -32 17 -26 0 -34 4 -36 22 -4 26 27 46 49 32 23 -14 31 -11
27 13 -3 20 -9 23 -55 25 l-53 1 0 -54 c0 -41 -4 -54 -15 -54 -12 0 -15 13
-15 55 0 37 -4 55 -12 55 -9 0 -12 -16 -10 -55 3 -45 1 -55 -12 -55 -9 0 -16
7 -16 15 0 12 -5 11 -29 -3 -28 -16 -31 -15 -50 2 -23 21 -28 65 -9 84 9 9 4
12 -24 12 -42 0 -53 -18 -26 -40 23 -18 16 -46 -14 -56 -16 -5 -18 -8 -7 -15
11 -6 10 -9 -5 -15 -12 -5 -23 -2 -30 8 -6 8 -21 18 -33 22 -26 8 -40 43 -24
59 7 7 29 17 49 23 37 12 37 12 -25 13 l-63 1 0 -55 c0 -39 -4 -55 -13 -55
-10 0 -13 14 -9 55 4 46 2 55 -12 55 -13 0 -16 -11 -16 -55 0 -42 -3 -55 -15
-55 -12 0 -15 13 -15 55 0 30 -4 55 -10 55 -5 0 -10 -25 -10 -55 0 -42 -3 -55
-15 -55 -8 0 -15 5 -15 12 0 6 -9 2 -21 -11 -27 -28 -92 -27 -97 3 -5 23 13
35 53 37 24 1 25 3 8 6 -31 6 -29 21 4 34 18 7 23 13 16 20 -15 15 -48 7 -48
-11 0 -8 -7 -15 -15 -15 -23 0 -18 38 6 50 12 6 63 10 113 10 78 -1 91 1 91
15 0 46 69 55 112 13z m-22 -193 c17 -12 22 -22 15 -29 -16 -15 -265 -18 -265
-2 0 16 62 34 120 35 33 1 62 5 66 9 13 12 38 7 64 -13z m124 -22 c14 -6 33
-22 42 -35 l15 -24 205 3 c158 2 204 0 204 -9 0 -7 -7 -13 -15 -13 -11 0 -15
-13 -15 -54 l0 -55 -47 3 c-73 4 -111 70 -45 78 42 5 31 23 -15 26 l-43 3 0
-55 c0 -43 -3 -56 -15 -56 -12 0 -15 13 -15 55 0 42 -3 55 -15 55 -12 0 -14
-10 -9 -55 6 -47 4 -55 -10 -55 -12 0 -16 9 -16 34 0 40 -12 51 -39 36 -22
-11 -18 -40 5 -40 19 0 18 -19 -1 -26 -32 -13 -63 41 -41 71 7 9 28 20 46 25
29 7 23 8 -37 9 -43 1 -73 -3 -73 -9 0 -5 -13 -10 -29 -10 -17 0 -33 -5 -37
-11 -5 -8 1 -10 19 -5 36 9 77 -9 77 -34 0 -24 -26 -38 -43 -21 -8 8 -8 11 1
11 7 0 12 5 12 11 0 18 -64 6 -68 -13 -3 -13 3 -18 21 -18 14 0 27 -7 31 -15
7 -20 -57 -21 -73 -1 -17 20 -7 87 14 103 17 12 15 13 -18 13 l-37 0 0 -55 c0
-30 -4 -55 -10 -55 -5 0 -10 25 -10 55 0 42 -3 55 -15 55 -12 0 -15 -13 -15
-55 0 -43 -3 -55 -16 -55 -11 0 -15 8 -13 33 2 17 -1 32 -6 32 -6 0 -9 -4 -7
-9 1 -4 -4 -19 -13 -33 -13 -19 -23 -23 -48 -21 -26 2 -33 8 -35 29 -4 33 21
55 78 67 44 10 43 10 -32 11 l-78 1 0 -55 c0 -42 -3 -55 -15 -55 -11 0 -15 11
-15 40 0 22 -4 40 -9 40 -5 0 -7 -8 -4 -19 6 -24 -22 -51 -52 -51 -28 0 -60
41 -51 65 9 23 33 18 32 -7 -1 -17 5 -24 22 -26 24 -4 30 16 11 35 -9 9 -3 14
22 21 30 9 26 10 -38 11 -51 1 -73 5 -73 14 0 9 42 11 185 9 181 -4 185 -3
185 16 0 12 10 28 22 36 27 19 30 19 62 4z"/>
<path d="M1285 1100 c-11 -18 5 -30 41 -30 38 0 45 14 15 30 -25 13 -48 13
-56 0z"/>
<path d="M1807 1103 c-16 -15 -6 -33 18 -33 28 0 34 24 9 34 -19 7 -19 7 -27
-1z"/>
<path d="M1512 1038 c-7 -7 -12 -25 -12 -41 0 -24 4 -28 23 -25 18 2 22 9 22
37 0 37 -13 49 -33 29z"/>
<path d="M1415 860 c-12 -19 6 -30 47 -30 40 0 41 0 23 20 -19 21 -60 27 -70
10z"/>
<path d="M1868 792 c-3 -13 -16 -26 -28 -29 -23 -6 -22 -26 1 -30 26 -5 41 13
37 48 -3 30 -4 31 -10 11z"/>
<path d="M1255 757 c-24 -18 -11 -41 16 -27 10 6 19 17 19 25 0 19 -11 19 -35
2z"/>
<path d="M574 442 c-419 -2 -494 -4 -504 -17 -19 -23 -4 -62 30 -73 35 -13 37
-26 11 -66 -23 -34 -19 -50 22 -93 36 -38 62 -41 93 -12 30 28 44 17 44 -34 1
-51 19 -77 52 -77 39 0 51 23 57 118 6 77 8 84 19 65 9 -17 10 -28 2 -42 -28
-53 8 -124 80 -161 54 -28 88 -26 102 5 9 21 8 28 -7 45 -10 11 -23 20 -30 20
-18 0 -48 37 -40 49 11 19 31 12 53 -19 27 -35 47 -38 78 -9 l23 21 11 -41
c13 -49 48 -65 80 -36 17 16 20 31 20 112 0 51 4 93 8 93 5 0 18 -18 30 -39
42 -75 113 -161 138 -167 27 -7 64 18 64 44 0 8 -11 27 -25 44 -30 36 -31 49
-6 72 11 10 23 35 26 57 13 75 25 38 25 -74 0 -123 12 -157 54 -157 42 0 56
29 57 116 0 66 2 76 12 59 28 -45 66 -75 106 -81 26 -4 55 -19 77 -38 l35 -32
-21 -27 c-25 -32 -23 -60 5 -65 20 -4 20 -3 1 11 -18 13 -17 16 23 52 l42 38
-28 12 c-16 7 -41 26 -55 44 -22 25 -32 30 -55 25 -20 -4 -38 1 -63 18 -34 23
-35 26 -40 98 -5 74 -5 75 -32 75 l-28 1 0 -143 0 -143 -32 0 -33 0 3 145 4
145 -41 0 -41 0 0 -54 c0 -59 -16 -86 -51 -86 -28 0 -24 -10 26 -66 44 -51 44
-52 24 -70 -19 -17 -20 -17 -52 21 -18 21 -54 70 -80 109 l-49 70 23 19 c22
18 23 18 36 -7 12 -24 49 -44 60 -32 3 2 6 24 7 47 l1 43 -87 1 -88 1 0 -143
0 -143 -30 0 -30 0 0 145 0 145 -35 0 c-35 0 -35 0 -35 -46 l0 -46 -72 2 c-93
3 -91 3 -78 -19 8 -16 20 -20 59 -19 80 2 118 -36 95 -96 -7 -19 -37 -21 -53
-3 -7 10 -7 17 0 24 18 18 1 33 -36 33 -37 0 -65 -21 -65 -50 0 -23 45 -59 82
-67 31 -6 34 -12 15 -36 -11 -16 -16 -15 -63 7 -87 41 -115 97 -73 150 11 14
16 26 10 26 -6 0 -19 16 -28 35 -24 51 -8 65 78 65 59 0 69 3 69 18 0 15 -12
17 -105 17 l-105 0 0 -142 0 -143 -30 0 -30 0 0 70 0 70 -40 0 c-36 0 -40 -3
-40 -24 0 -41 -20 -41 -63 2 -27 28 -38 45 -33 57 3 10 12 15 21 11 12 -4 15
5 15 50 l0 55 -34 -6 c-30 -6 -34 -4 -38 19 l-5 26 763 0 764 0 0 -26 c0 -23
-3 -25 -37 -22 l-38 3 3 -47 4 -48 -76 0 c-65 0 -77 -3 -86 -20 -24 -44 24
-110 80 -110 15 0 39 9 53 20 22 18 29 19 47 8 11 -7 20 -15 20 -18 -1 -10
-52 -42 -77 -49 -24 -6 -23 -7 22 -40 47 -34 71 -36 42 -3 -22 24 -21 27 4 61
17 23 19 33 10 49 -14 26 -45 33 -68 16 -27 -20 -77 -17 -99 7 -30 33 -8 53
59 57 60 3 87 24 87 67 0 14 10 24 30 32 22 8 30 18 30 36 0 13 -6 29 -13 35
-15 13 -363 18 -1023 14z m94 -147 c2 -21 1 -49 -3 -62 l-6 -24 -24 29 c-24
28 -24 29 -7 65 21 45 36 42 40 -8z"/>
<path d="M1720 419 c-9 -16 -8 -26 7 -46 10 -14 28 -41 40 -61 l21 -35 -20
-27 c-25 -35 -18 -50 57 -119 62 -56 95 -64 119 -29 21 30 9 38 -15 9 l-19
-23 -59 51 c-85 74 -87 77 -66 101 17 19 20 19 36 4 15 -14 21 -14 46 -2 15 7
29 20 31 28 2 12 -6 15 -35 12 -52 -5 -88 27 -79 71 6 28 5 29 -24 24 -27 -6
-30 -4 -30 18 l0 25 575 0 575 0 0 -25 c0 -19 -5 -25 -17 -23 -16 3 -18 -9
-18 -140 l0 -142 -27 0 -28 0 0 85 0 85 -45 0 c-43 0 -45 -1 -45 -29 0 -17 -4
-33 -10 -36 -15 -9 -81 67 -78 90 3 18 12 20 91 23 l88 3 -3 31 -3 30 -118 2
-117 1 0 -142 0 -143 -30 0 -30 0 0 75 c0 73 -1 75 -25 75 -14 0 -29 8 -35 19
-16 30 -13 34 25 27 l35 -7 0 41 c0 22 1 43 3 48 1 4 -17 8 -40 9 l-43 2 0
-60 c0 -57 -1 -61 -31 -73 l-30 -13 47 -52 c44 -49 46 -53 28 -66 -11 -8 -24
-15 -30 -15 -6 0 -42 45 -80 101 -66 97 -68 101 -50 115 27 19 31 18 45 -12
19 -42 44 -27 44 25 l0 44 -76 2 -77 1 0 -143 0 -143 -30 0 -30 0 0 145 0 145
-35 0 -35 0 0 -145 0 -145 -30 0 -30 0 0 145 0 145 -31 0 c-26 0 -30 -3 -24
-17 24 -63 2 -126 -54 -155 l-32 -16 34 -26 c42 -32 54 -33 34 -3 -14 21 -13
25 13 54 16 17 31 29 34 26 3 -4 6 -36 6 -73 0 -74 19 -104 61 -98 37 5 49 43
49 161 0 64 4 107 10 107 6 0 10 -46 10 -118 0 -103 3 -121 18 -135 24 -22 45
-21 65 1 13 14 17 39 17 105 0 48 3 87 8 87 4 0 27 -32 52 -70 24 -39 59 -84
77 -102 28 -28 35 -30 57 -20 38 17 42 47 11 92 -33 47 -26 66 16 45 27 -14
29 -20 29 -69 0 -57 19 -86 57 -86 34 0 46 27 52 118 l6 86 17 -26 c45 -69 87
-85 114 -43 28 42 44 32 44 -27 0 -71 17 -103 55 -103 45 0 55 31 55 167 0 67
4 119 10 123 14 9 13 48 -2 63 -9 9 -151 12 -580 12 -563 0 -567 0 -578 -21z
m967 -79 c-39 -5 -66 -15 -83 -30 l-24 -23 0 25 c0 13 3 28 7 31 3 4 40 6 82
6 l76 -2 -58 -7z"/>
<path d="M210 327 l0 -52 40 0 40 0 0 52 0 53 -40 0 -40 0 0 -53z"/>
<path d="M1240 370 c0 -3 18 -23 40 -45 39 -38 40 -38 60 -20 13 11 41 20 75
23 49 4 55 7 55 27 0 22 -2 22 -115 21 -63 0 -115 -3 -115 -6z"/>
<path d="M1839 364 c-9 -11 -10 -20 -2 -32 14 -23 47 -27 63 -7 11 13 10 19
-5 35 -22 24 -38 25 -56 4z"/>
<path d="M1230 299 c0 -46 16 -69 50 -69 18 0 30 5 30 13 -1 12 -65 87 -75 87
-3 0 -5 -14 -5 -31z"/>
<path d="M1418 46 c-16 -19 -28 -37 -28 -40 0 -14 23 -4 40 17 l18 22 24 -22
c13 -13 33 -23 43 -23 15 0 11 8 -20 40 -21 22 -42 40 -45 40 -3 0 -17 -16
-32 -34z"/>
</g>
</svg>
